<?xml version="1.0" encoding="UTF-8"?>
<!-- Do not edit this file with editors other than draw.io -->
<!DOCTYPE svg PUBLIC "-//W3C//DTD SVG 1.1//EN" "http://www.w3.org/Graphics/SVG/1.1/DTD/svg11.dtd">
<svg xmlns="http://www.w3.org/2000/svg" xmlns:xlink="http://www.w3.org/1999/xlink" version="1.1" width="79px" height="79px" viewBox="-0.5 -0.5 79 79" content="&lt;mxfile host=&quot;app.diagrams.net&quot; agent=&quot;Mozilla/5.0 (Windows NT 10.0; Win64; x64) AppleWebKit/537.36 (KHTML, like Gecko) Chrome/128.0.0.0 Safari/537.36&quot; version=&quot;24.7.12&quot; scale=&quot;1&quot; border=&quot;0&quot;&gt;&#10;  &lt;diagram id=&quot;Ht1M8jgEwFfnCIfOTk4-&quot; name=&quot;Page-1&quot;&gt;&#10;    &lt;mxGraphModel dx=&quot;536&quot; dy=&quot;520&quot; grid=&quot;0&quot; gridSize=&quot;10&quot; guides=&quot;1&quot; tooltips=&quot;1&quot; connect=&quot;1&quot; arrows=&quot;1&quot; fold=&quot;1&quot; page=&quot;0&quot; pageScale=&quot;1&quot; pageWidth=&quot;827&quot; pageHeight=&quot;1169&quot; math=&quot;0&quot; shadow=&quot;0&quot;&gt;&#10;      &lt;root&gt;&#10;        &lt;mxCell id=&quot;0&quot; /&gt;&#10;        &lt;mxCell id=&quot;1&quot; parent=&quot;0&quot; /&gt;&#10;        &lt;mxCell id=&quot;avGQMYYckVE-guQs1G8Z-5&quot; value=&quot;&quot; style=&quot;sketch=0;points=[[0,0,0],[0.25,0,0],[0.5,0,0],[0.75,0,0],[1,0,0],[0,1,0],[0.25,1,0],[0.5,1,0],[0.75,1,0],[1,1,0],[0,0.25,0],[0,0.5,0],[0,0.75,0],[1,0.25,0],[1,0.5,0],[1,0.75,0]];outlineConnect=0;fontColor=#232F3E;fillColor=#DD344C;strokeColor=#ffffff;dashed=0;verticalLabelPosition=bottom;verticalAlign=top;align=center;html=1;fontSize=12;fontStyle=0;aspect=fixed;shape=mxgraph.aws4.resourceIcon;resIcon=mxgraph.aws4.cognito;&quot; vertex=&quot;1&quot; parent=&quot;1&quot;&gt;&#10;          &lt;mxGeometry x=&quot;654&quot; y=&quot;346&quot; width=&quot;78&quot; height=&quot;78&quot; as=&quot;geometry&quot; /&gt;&#10;        &lt;/mxCell&gt;&#10;      &lt;/root&gt;&#10;    &lt;/mxGraphModel&gt;&#10;  &lt;/diagram&gt;&#10;&lt;/mxfile&gt;&#10;" style="background-color: rgb(255, 255, 255);"><defs/><rect fill="#ffffff" width="100%" height="100%" x="0" y="0"/><g><g data-cell-id="0"><g data-cell-id="1"><g data-cell-id="avGQMYYckVE-guQs1G8Z-5"><g><path d="M 0 0 L 78 0 L 78 78 L 0 78 Z" fill="#dd344c" stroke="none" pointer-events="all"/><path d="M 13.31 34.34 L 27.64 34.34 L 27.64 32.14 L 13.31 32.14 Z M 62.63 50.36 L 64.19 51.92 L 56 60.09 C 55.79 60.31 55.51 60.41 55.22 60.41 C 54.94 60.41 54.66 60.31 54.45 60.09 L 50.33 55.98 L 51.89 54.42 L 55.22 57.76 Z M 67.7 56.43 C 67.45 58.5 66.61 60.42 65.26 62 C 64.31 63.12 63.1 64.04 61.77 64.67 C 59.99 65.51 58.02 65.83 56.05 65.59 C 54.13 65.36 52.33 64.61 50.82 63.41 C 47.93 61.12 46.47 57.56 46.91 53.89 C 47.33 50.42 49.43 47.4 52.53 45.8 C 54.01 45.04 55.64 44.65 57.29 44.65 C 57.72 44.65 58.15 44.67 58.57 44.72 C 62.03 45.15 65.05 47.26 66.64 50.37 C 67.59 52.24 67.96 54.34 67.7 56.43 Z M 68.6 49.38 C 66.68 45.61 63.03 43.05 58.84 42.54 C 56.31 42.23 53.78 42.68 51.52 43.85 C 47.77 45.78 45.23 49.44 44.73 53.63 C 44.19 58.06 45.95 62.36 49.45 65.14 C 51.27 66.58 53.46 67.5 55.78 67.78 C 56.29 67.84 56.81 67.87 57.32 67.87 C 59.18 67.87 61.03 67.46 62.72 66.66 C 64.33 65.9 65.79 64.78 66.94 63.43 C 68.57 61.52 69.59 59.19 69.89 56.69 C 70.2 54.17 69.75 51.64 68.6 49.38 Z M 24.34 40.95 L 28.75 40.95 L 28.75 38.75 L 24.34 38.75 Z M 13.31 40.95 L 22.13 40.95 L 22.13 38.75 L 13.31 38.75 Z M 12.36 12.33 L 61.67 12.33 C 62.97 12.33 64.02 13.61 64.02 15.19 L 64.02 23.34 L 60.72 23.34 L 60.72 17.83 C 60.72 17.23 60.22 16.73 59.61 16.73 L 34.26 16.73 C 33.65 16.73 33.15 17.23 33.15 17.83 L 33.15 23.34 L 10 23.34 L 10 15.19 C 10 13.64 11.08 12.33 12.36 12.33 Z M 46.95 23.02 C 49.51 23.02 51.59 25.08 51.59 27.61 C 51.59 29.27 50.67 30.81 49.19 31.61 C 47.79 32.37 46.09 32.36 44.7 31.61 C 43.23 30.81 42.31 29.27 42.31 27.61 C 42.31 25.08 44.39 23.02 46.95 23.02 Z M 10 46.89 L 10 25.54 L 33.15 25.54 L 33.15 44.25 C 33.15 44.86 33.65 45.35 34.26 45.35 L 45.78 45.35 L 45.78 43.15 L 36.58 43.15 C 36.67 38.75 39.6 34.94 43.82 33.73 C 45.77 34.64 48.09 34.64 50.07 33.72 C 52.47 34.42 54.58 36.02 55.88 38.17 L 57.76 37.03 C 56.43 34.83 54.4 33.11 52.05 32.11 C 53.15 30.89 53.8 29.3 53.8 27.61 C 53.8 23.86 50.73 20.82 46.95 20.82 C 43.18 20.82 40.1 23.86 40.1 27.61 C 40.1 29.29 40.75 30.87 41.84 32.1 C 38.89 33.34 36.59 35.66 35.36 38.53 L 35.36 18.93 L 58.51 18.93 L 58.51 36.55 L 60.72 36.55 L 60.72 25.54 L 64.02 25.54 L 64.02 42.05 L 66.23 42.05 L 66.23 15.19 C 66.23 12.4 64.18 10.13 61.67 10.13 L 12.36 10.13 C 9.84 10.13 7.8 12.4 7.8 15.19 L 7.8 46.89 C 7.8 49.69 9.84 51.96 12.36 51.96 L 41.97 51.96 L 41.97 49.76 L 12.36 49.76 C 11.08 49.76 10 48.45 10 46.89 Z" fill="#ffffff" stroke="none" pointer-events="all"/></g></g></g></g></g></svg>