<?xml version="1.0" encoding="UTF-8"?>
<!-- Do not edit this file with editors other than draw.io -->
<!DOCTYPE svg PUBLIC "-//W3C//DTD SVG 1.1//EN" "http://www.w3.org/Graphics/SVG/1.1/DTD/svg11.dtd">
<svg xmlns="http://www.w3.org/2000/svg" xmlns:xlink="http://www.w3.org/1999/xlink" version="1.1" width="80px" height="80px" viewBox="-0.5 -0.5 80 80" content="&lt;mxfile host=&quot;app.diagrams.net&quot; agent=&quot;Mozilla/5.0 (Windows NT 10.0; Win64; x64) AppleWebKit/537.36 (KHTML, like Gecko) Chrome/129.0.0.0 Safari/537.36&quot; scale=&quot;1&quot; border=&quot;0&quot; version=&quot;24.7.15&quot;&gt;&#10;  &lt;diagram name=&quot;Trang-1&quot; id=&quot;xcQw1xHshWB68LUwrTin&quot;&gt;&#10;    &lt;mxGraphModel dx=&quot;-28320&quot; dy=&quot;-3644&quot; grid=&quot;0&quot; gridSize=&quot;10&quot; guides=&quot;1&quot; tooltips=&quot;1&quot; connect=&quot;1&quot; arrows=&quot;1&quot; fold=&quot;1&quot; page=&quot;0&quot; pageScale=&quot;1&quot; pageWidth=&quot;827&quot; pageHeight=&quot;1169&quot; math=&quot;0&quot; shadow=&quot;0&quot;&gt;&#10;      &lt;root&gt;&#10;        &lt;mxCell id=&quot;0&quot; /&gt;&#10;        &lt;mxCell id=&quot;1&quot; parent=&quot;0&quot; /&gt;&#10;        &lt;mxCell id=&quot;8UWSB0lk3DGou6DHnvE6-1&quot; value=&quot;&quot; style=&quot;sketch=0;points=[[0,0,0],[0.25,0,0],[0.5,0,0],[0.75,0,0],[1,0,0],[0,1,0],[0.25,1,0],[0.5,1,0],[0.75,1,0],[1,1,0],[0,0.25,0],[0,0.5,0],[0,0.75,0],[1,0.25,0],[1,0.5,0],[1,0.75,0]];points=[[0,0,0],[0.25,0,0],[0.5,0,0],[0.75,0,0],[1,0,0],[0,1,0],[0.25,1,0],[0.5,1,0],[0.75,1,0],[1,1,0],[0,0.25,0],[0,0.5,0],[0,0.75,0],[1,0.25,0],[1,0.5,0],[1,0.75,0]];outlineConnect=0;fontColor=#232F3E;fillColor=#E7157B;strokeColor=#ffffff;dashed=0;verticalLabelPosition=bottom;verticalAlign=top;align=center;html=1;fontSize=12;fontStyle=0;aspect=fixed;shape=mxgraph.aws4.resourceIcon;resIcon=mxgraph.aws4.chatbot;&quot; vertex=&quot;1&quot; parent=&quot;1&quot;&gt;&#10;          &lt;mxGeometry x=&quot;30722&quot; y=&quot;4958&quot; width=&quot;78&quot; height=&quot;78&quot; as=&quot;geometry&quot; /&gt;&#10;        &lt;/mxCell&gt;&#10;      &lt;/root&gt;&#10;    &lt;/mxGraphModel&gt;&#10;  &lt;/diagram&gt;&#10;&lt;/mxfile&gt;&#10;" style="background-color: rgb(255, 255, 255);"><defs/><rect fill="#ffffff" width="100%" height="100%" x="0" y="0"/><g><g data-cell-id="0"><g data-cell-id="1"><g data-cell-id="8UWSB0lk3DGou6DHnvE6-1"><g><path d="M 0 0 L 78 0 L 78 78 L 0 78 Z" fill="#e7157b" stroke="none" pointer-events="all"/><path d="M 36.26 19.84 L 40.64 19.84 L 40.64 17.65 L 36.26 17.65 Z M 28.6 19.84 L 32.98 19.84 L 32.98 17.65 L 28.6 17.65 Z M 20.94 19.84 L 25.32 19.84 L 25.32 17.65 L 20.94 17.65 Z M 66.6 50.88 C 66.26 51.66 65.57 52.24 64.72 52.51 L 64.72 46.33 C 65.39 46.56 65.98 46.99 66.38 47.6 C 67 48.55 67.09 49.75 66.6 50.88 Z M 11.41 50.88 C 10.92 49.75 11 48.55 11.62 47.6 C 12.02 46.99 12.61 46.56 13.28 46.33 L 13.28 52.51 C 12.44 52.24 11.74 51.66 11.41 50.88 Z M 68.21 46.39 C 67.39 45.16 66.14 44.33 64.72 44.05 L 64.72 42.1 C 64.72 38.28 61.78 35.17 58.16 35.17 L 37.36 35.17 L 37.36 37.36 L 58.16 37.36 C 60.57 37.36 62.53 39.49 62.53 42.1 L 62.53 56.7 C 62.53 59.31 60.57 61.44 58.16 61.44 L 19.84 61.44 C 17.43 61.44 15.47 59.31 15.47 56.7 L 15.47 42.1 C 15.47 39.49 17.43 37.36 19.84 37.36 L 25.32 37.36 L 25.32 35.17 L 19.84 35.17 C 16.22 35.17 13.28 38.28 13.28 42.1 L 13.28 44.05 C 11.86 44.33 10.61 45.16 9.8 46.39 C 8.76 47.97 8.61 49.93 9.39 51.75 C 10.08 53.34 11.54 54.45 13.28 54.78 L 13.28 56.7 C 13.28 60.52 16.22 63.63 19.84 63.63 L 32.98 63.63 L 32.98 70.2 L 35.17 70.2 L 35.17 63.63 L 41.74 63.63 L 41.74 70.2 L 43.93 70.2 L 43.93 63.63 L 58.16 63.63 C 61.78 63.63 64.72 60.52 64.72 56.7 L 64.72 54.78 C 66.46 54.45 67.92 53.34 68.61 51.75 C 69.39 49.93 69.25 47.97 68.21 46.39 Z M 29.7 49.4 C 29.7 51.21 28.22 52.68 26.41 52.68 C 24.6 52.68 23.13 51.21 23.13 49.4 C 23.13 47.59 24.6 46.12 26.41 46.12 C 28.22 46.12 29.7 47.59 29.7 49.4 Z M 20.94 49.4 C 20.94 52.42 23.39 54.87 26.41 54.87 C 29.43 54.87 31.89 52.42 31.89 49.4 C 31.89 46.38 29.43 43.93 26.41 43.93 C 23.39 43.93 20.94 46.38 20.94 49.4 Z M 48.3 49.4 C 48.3 47.59 49.78 46.12 51.59 46.12 C 53.4 46.12 54.87 47.59 54.87 49.4 C 54.87 51.21 53.4 52.68 51.59 52.68 C 49.78 52.68 48.3 51.21 48.3 49.4 Z M 57.06 49.4 C 57.06 46.38 54.61 43.93 51.59 43.93 C 48.57 43.93 46.11 46.38 46.11 49.4 C 46.11 52.42 48.57 54.87 51.59 54.87 C 54.61 54.87 57.06 52.42 57.06 49.4 Z M 16.56 10.92 C 16.56 10.41 16.98 9.99 17.49 9.99 L 45.02 9.99 L 45.02 27.63 C 45.02 28.17 44.59 28.6 44.05 28.6 L 32.98 28.6 C 32.37 28.6 31.89 29.09 31.89 29.69 L 31.89 35.37 L 27.05 29.03 C 26.84 28.76 26.52 28.6 26.18 28.6 L 17.49 28.6 C 16.98 28.6 16.56 28.18 16.56 27.67 Z M 17.49 30.79 L 25.63 30.79 L 32.11 39.28 C 32.32 39.55 32.65 39.71 32.98 39.71 C 33.1 39.71 33.21 39.69 33.33 39.65 C 33.77 39.5 34.07 39.08 34.07 38.61 L 34.07 30.79 L 44.05 30.79 C 45.8 30.79 47.21 29.37 47.21 27.63 L 47.21 9.47 C 47.21 8.55 46.46 7.8 45.54 7.8 L 17.49 7.8 C 15.77 7.8 14.37 9.2 14.37 10.92 L 14.37 27.67 C 14.37 29.39 15.77 30.79 17.49 30.79 Z" fill="#ffffff" stroke="none" pointer-events="all"/></g></g></g></g></g></svg>