<?xml version="1.0" encoding="UTF-8"?>
<!-- Do not edit this file with editors other than draw.io -->
<!DOCTYPE svg PUBLIC "-//W3C//DTD SVG 1.1//EN" "http://www.w3.org/Graphics/SVG/1.1/DTD/svg11.dtd">
<svg xmlns="http://www.w3.org/2000/svg" xmlns:xlink="http://www.w3.org/1999/xlink" version="1.1" width="79px" height="79px" viewBox="-0.5 -0.5 79 79" content="&lt;mxfile host=&quot;app.diagrams.net&quot; agent=&quot;Mozilla/5.0 (Windows NT 10.0; Win64; x64) AppleWebKit/537.36 (KHTML, like Gecko) Chrome/128.0.0.0 Safari/537.36&quot; version=&quot;24.7.12&quot; scale=&quot;1&quot; border=&quot;0&quot;&gt;&#10;  &lt;diagram id=&quot;Ht1M8jgEwFfnCIfOTk4-&quot; name=&quot;Page-1&quot;&gt;&#10;    &lt;mxGraphModel dx=&quot;136&quot; dy=&quot;520&quot; grid=&quot;0&quot; gridSize=&quot;10&quot; guides=&quot;1&quot; tooltips=&quot;1&quot; connect=&quot;1&quot; arrows=&quot;1&quot; fold=&quot;1&quot; page=&quot;0&quot; pageScale=&quot;1&quot; pageWidth=&quot;827&quot; pageHeight=&quot;1169&quot; math=&quot;0&quot; shadow=&quot;0&quot;&gt;&#10;      &lt;root&gt;&#10;        &lt;mxCell id=&quot;0&quot; /&gt;&#10;        &lt;mxCell id=&quot;1&quot; parent=&quot;0&quot; /&gt;&#10;        &lt;mxCell id=&quot;avGQMYYckVE-guQs1G8Z-6&quot; value=&quot;&quot; style=&quot;sketch=0;points=[[0,0,0],[0.25,0,0],[0.5,0,0],[0.75,0,0],[1,0,0],[0,1,0],[0.25,1,0],[0.5,1,0],[0.75,1,0],[1,1,0],[0,0.25,0],[0,0.5,0],[0,0.75,0],[1,0.25,0],[1,0.5,0],[1,0.75,0]];outlineConnect=0;fontColor=#232F3E;fillColor=#3334B9;strokeColor=#ffffff;dashed=0;verticalLabelPosition=bottom;verticalAlign=top;align=center;html=1;fontSize=12;fontStyle=0;aspect=fixed;shape=mxgraph.aws4.resourceIcon;resIcon=mxgraph.aws4.codedeploy;gradientColor=#4D72F3;gradientDirection=north;&quot; vertex=&quot;1&quot; parent=&quot;1&quot;&gt;&#10;          &lt;mxGeometry x=&quot;810&quot; y=&quot;346&quot; width=&quot;78&quot; height=&quot;78&quot; as=&quot;geometry&quot; /&gt;&#10;        &lt;/mxCell&gt;&#10;      &lt;/root&gt;&#10;    &lt;/mxGraphModel&gt;&#10;  &lt;/diagram&gt;&#10;&lt;/mxfile&gt;&#10;" style="background-color: rgb(255, 255, 255);"><defs><linearGradient x1="0%" y1="100%" x2="0%" y2="0%" id="mx-gradient-4d72f3-1-3334b9-1-s-0"><stop offset="0%" style="stop-color: rgb(51, 52, 185); stop-opacity: 1;"/><stop offset="100%" style="stop-color: rgb(77, 114, 243); stop-opacity: 1;"/></linearGradient></defs><rect fill="#ffffff" width="100%" height="100%" x="0" y="0"/><g><g data-cell-id="0"><g data-cell-id="1"><g data-cell-id="avGQMYYckVE-guQs1G8Z-6"><g><path d="M 0 0 L 78 0 L 78 78 L 0 78 Z" fill="url(#mx-gradient-4d72f3-1-3334b9-1-s-0)" stroke="none" pointer-events="all"/><path d="M 39.04 7.81 C 21.89 7.81 8.47 20.88 7.82 38.21 C 7.8 38.63 8.03 39 8.37 39.21 L 19.58 46.58 L 20.77 44.73 L 10.17 37.77 C 10.73 35.4 12.46 33.62 14.94 32.72 C 16.11 32.3 17.46 32.07 18.93 32.07 C 21.35 32.07 23.61 32.97 25.3 34.62 L 25.49 34.82 C 27 36.29 27.9 38.97 27.9 38.98 C 27.9 39.05 29.39 44.63 29.39 44.63 L 31.51 44.05 L 30.09 38.75 L 30.09 38.62 C 30.62 33.79 35.05 32.07 39.01 32.07 C 41.43 32.07 43.68 32.97 45.37 34.62 C 45.37 34.62 47.76 36.46 47.94 38.61 L 47.95 38.76 L 46.51 44.04 L 48.62 44.63 L 50.12 39.12 C 50.12 39.08 50.13 39.04 50.13 38.99 C 50.43 34.77 53.94 32.07 59.1 32.07 C 61.5 32.07 63.75 32.97 65.44 34.62 C 66.75 35.9 67.68 36.87 67.94 37.83 L 58.48 44.47 L 59.73 46.28 L 69.73 39.26 C 70 39.04 70.2 38.27 70.2 38.22 C 69.89 20.88 56.52 7.82 39.04 7.81 Z M 27.94 34.15 C 27.65 33.85 27.34 33.55 27.01 33.23 L 26.82 33.04 C 24.72 30.99 21.92 29.86 18.93 29.86 C 15.55 29.86 12.69 30.88 10.72 32.67 C 13.32 20.95 22.52 12.23 34.32 10.39 C 30.8 14.53 28.35 23.29 27.94 34.15 Z M 47.29 33.41 L 46.9 33.04 C 44.8 30.99 42 29.86 39.01 29.86 C 35.22 29.86 32.14 31.13 30.17 33.31 C 30.89 19.4 35.16 10.02 39.02 10.02 C 39.03 10.02 39.04 10.02 39.04 10.02 C 42.97 10.04 47.31 19.74 47.92 34.04 C 47.71 33.83 47.51 33.63 47.29 33.41 Z M 66.96 33.04 C 64.86 30.99 62.07 29.86 59.1 29.86 C 55.22 29.86 52.05 31.24 50.09 33.54 C 49.61 22.95 47.19 14.44 43.73 10.39 C 56.11 12.26 65.5 21.4 67.58 33.65 C 67.38 33.44 67.17 33.24 66.96 33.04 Z M 29.04 58.33 C 28.81 58.1 28.69 57.79 28.71 57.46 C 28.73 57.14 28.89 56.85 29.14 56.65 L 34.34 52.73 L 35.65 54.5 L 31.48 57.65 L 35.21 61.31 L 33.68 62.89 Z M 47.8 58.71 L 44.08 55.05 L 45.6 53.47 L 50.25 58.03 C 50.48 58.26 50.6 58.57 50.58 58.89 C 50.56 59.22 50.4 59.51 50.14 59.71 L 44.94 63.63 L 43.63 61.86 Z M 35.28 66.03 L 41.91 50.85 L 43.91 51.74 L 37.28 66.92 Z M 54.88 47 L 24.23 47 C 23.63 47 23.14 47.5 23.14 48.11 L 23.14 69.09 C 23.14 69.7 23.63 70.19 24.23 70.19 L 54.88 70.19 C 55.48 70.19 55.97 69.7 55.97 69.09 L 55.97 48.11 C 55.97 47.5 55.48 47 54.88 47 Z M 25.33 67.98 L 25.33 49.21 L 53.78 49.21 L 53.78 67.98 Z" fill="#ffffff" stroke="none" pointer-events="all"/></g></g></g></g></g></svg>