<?xml version="1.0" encoding="UTF-8"?>
<!-- Do not edit this file with editors other than draw.io -->
<!DOCTYPE svg PUBLIC "-//W3C//DTD SVG 1.1//EN" "http://www.w3.org/Graphics/SVG/1.1/DTD/svg11.dtd">
<svg xmlns="http://www.w3.org/2000/svg" xmlns:xlink="http://www.w3.org/1999/xlink" version="1.1" width="79px" height="79px" viewBox="-0.5 -0.5 79 79" content="&lt;mxfile host=&quot;app.diagrams.net&quot; agent=&quot;Mozilla/5.0 (Windows NT 10.0; Win64; x64) AppleWebKit/537.36 (KHTML, like Gecko) Chrome/128.0.0.0 Safari/537.36&quot; version=&quot;24.7.12&quot; scale=&quot;1&quot; border=&quot;0&quot;&gt;&#10;  &lt;diagram id=&quot;Ht1M8jgEwFfnCIfOTk4-&quot; name=&quot;Page-1&quot;&gt;&#10;    &lt;mxGraphModel dx=&quot;1472&quot; dy=&quot;1040&quot; grid=&quot;0&quot; gridSize=&quot;10&quot; guides=&quot;1&quot; tooltips=&quot;1&quot; connect=&quot;1&quot; arrows=&quot;1&quot; fold=&quot;1&quot; page=&quot;0&quot; pageScale=&quot;1&quot; pageWidth=&quot;827&quot; pageHeight=&quot;1169&quot; math=&quot;0&quot; shadow=&quot;0&quot;&gt;&#10;      &lt;root&gt;&#10;        &lt;mxCell id=&quot;0&quot; /&gt;&#10;        &lt;mxCell id=&quot;1&quot; parent=&quot;0&quot; /&gt;&#10;        &lt;mxCell id=&quot;CLg2kltCwuJcUN33AdQs-1&quot; value=&quot;&quot; style=&quot;sketch=0;points=[[0,0,0],[0.25,0,0],[0.5,0,0],[0.75,0,0],[1,0,0],[0,1,0],[0.25,1,0],[0.5,1,0],[0.75,1,0],[1,1,0],[0,0.25,0],[0,0.5,0],[0,0.75,0],[1,0.25,0],[1,0.5,0],[1,0.75,0]];outlineConnect=0;fontColor=#232F3E;fillColor=#3334B9;strokeColor=#ffffff;dashed=0;verticalLabelPosition=bottom;verticalAlign=top;align=center;html=1;fontSize=12;fontStyle=0;aspect=fixed;shape=mxgraph.aws4.resourceIcon;resIcon=mxgraph.aws4.rds;gradientColor=#4D72F3;gradientDirection=north;&quot; vertex=&quot;1&quot; parent=&quot;1&quot;&gt;&#10;          &lt;mxGeometry x=&quot;495&quot; y=&quot;184&quot; width=&quot;78&quot; height=&quot;78&quot; as=&quot;geometry&quot; /&gt;&#10;        &lt;/mxCell&gt;&#10;      &lt;/root&gt;&#10;    &lt;/mxGraphModel&gt;&#10;  &lt;/diagram&gt;&#10;&lt;/mxfile&gt;&#10;" style="background-color: rgb(255, 255, 255);"><defs><linearGradient x1="0%" y1="100%" x2="0%" y2="0%" id="mx-gradient-4d72f3-1-3334b9-1-s-0"><stop offset="0%" style="stop-color: rgb(51, 52, 185); stop-opacity: 1;"/><stop offset="100%" style="stop-color: rgb(77, 114, 243); stop-opacity: 1;"/></linearGradient></defs><rect fill="#ffffff" width="100%" height="100%" x="0" y="0"/><g><g data-cell-id="0"><g data-cell-id="1"><g data-cell-id="CLg2kltCwuJcUN33AdQs-1"><g><path d="M 0 0 L 78 0 L 78 78 L 0 78 Z" fill="url(#mx-gradient-4d72f3-1-3334b9-1-s-0)" stroke="none" pointer-events="all"/><path d="M 11.6 10.03 L 21.96 20.38 L 20.38 21.96 L 10.03 11.6 L 10.03 20.06 L 7.8 20.06 L 7.8 8.91 C 7.8 8.3 8.3 7.8 8.91 7.8 L 20.06 7.8 L 20.06 10.03 Z M 70.2 8.91 L 70.2 20.06 L 67.97 20.06 L 67.97 11.6 L 57.62 21.96 L 56.04 20.38 L 66.4 10.03 L 57.94 10.03 L 57.94 7.8 L 69.09 7.8 C 69.7 7.8 70.2 8.3 70.2 8.91 Z M 67.97 57.94 L 70.2 57.94 L 70.2 69.09 C 70.2 69.7 69.7 70.2 69.09 70.2 L 57.94 70.2 L 57.94 67.97 L 66.4 67.97 L 56.04 57.62 L 57.62 56.04 L 67.97 66.4 Z M 67.41 38.12 C 67.41 34.42 63.14 30.77 55.99 28.35 L 56.71 26.24 C 64.93 29.02 69.64 33.35 69.64 38.12 C 69.64 42.89 64.93 47.23 56.71 50.01 L 55.99 47.9 C 63.14 45.48 67.41 41.82 67.41 38.12 Z M 10.65 38.12 C 10.65 41.67 14.65 45.22 21.34 47.64 L 20.58 49.74 C 12.85 46.95 8.42 42.71 8.42 38.12 C 8.42 33.53 12.85 29.3 20.58 26.51 L 21.34 28.61 C 14.65 31.02 10.65 34.58 10.65 38.12 Z M 21.96 57.62 L 11.6 67.97 L 20.06 67.97 L 20.06 70.2 L 8.91 70.2 C 8.3 70.2 7.8 69.7 7.8 69.09 L 7.8 57.94 L 10.03 57.94 L 10.03 66.4 L 20.38 56.04 Z M 39 29.29 C 31.04 29.29 26.74 27.23 26.74 26.39 C 26.74 25.55 31.04 23.5 39 23.5 C 46.96 23.5 51.26 25.55 51.26 26.39 C 51.26 27.23 46.96 29.29 39 29.29 Z M 39.03 37.92 C 31.41 37.92 26.74 35.84 26.74 34.7 L 26.74 29.29 C 29.49 30.8 34.36 31.52 39 31.52 C 43.64 31.52 48.51 30.8 51.26 29.29 L 51.26 34.7 C 51.26 35.84 46.62 37.92 39.03 37.92 Z M 39.03 46.43 C 31.41 46.43 26.74 44.35 26.74 43.21 L 26.74 37.73 C 29.45 39.32 34.26 40.15 39.03 40.15 C 43.78 40.15 48.56 39.33 51.26 37.74 L 51.26 43.21 C 51.26 44.35 46.62 46.43 39.03 46.43 Z M 39 54.06 C 31.07 54.06 26.74 51.93 26.74 50.84 L 26.74 46.24 C 29.45 47.83 34.26 48.66 39.03 48.66 C 43.78 48.66 48.56 47.84 51.26 46.25 L 51.26 50.84 C 51.26 51.93 46.93 54.06 39 54.06 Z M 39 21.27 C 32.02 21.27 24.51 22.87 24.51 26.39 L 24.51 50.84 C 24.51 54.42 31.8 56.29 39 56.29 C 46.2 56.29 53.49 54.42 53.49 50.84 L 53.49 26.39 C 53.49 22.87 45.98 21.27 39 21.27 Z" fill="#ffffff" stroke="none" pointer-events="all"/></g></g></g></g></g></svg>