<?xml version="1.0" encoding="UTF-8"?>
<!-- Do not edit this file with editors other than draw.io -->
<!DOCTYPE svg PUBLIC "-//W3C//DTD SVG 1.1//EN" "http://www.w3.org/Graphics/SVG/1.1/DTD/svg11.dtd">
<svg xmlns="http://www.w3.org/2000/svg" xmlns:xlink="http://www.w3.org/1999/xlink" version="1.1" width="79px" height="79px" viewBox="-0.5 -0.5 79 79" content="&lt;mxfile host=&quot;app.diagrams.net&quot; agent=&quot;Mozilla/5.0 (Windows NT 10.0; Win64; x64) AppleWebKit/537.36 (KHTML, like Gecko) Chrome/128.0.0.0 Safari/537.36&quot; version=&quot;24.7.12&quot; scale=&quot;1&quot; border=&quot;0&quot;&gt;&#10;  &lt;diagram id=&quot;Ht1M8jgEwFfnCIfOTk4-&quot; name=&quot;Page-1&quot;&gt;&#10;    &lt;mxGraphModel dx=&quot;536&quot; dy=&quot;520&quot; grid=&quot;0&quot; gridSize=&quot;10&quot; guides=&quot;1&quot; tooltips=&quot;1&quot; connect=&quot;1&quot; arrows=&quot;1&quot; fold=&quot;1&quot; page=&quot;0&quot; pageScale=&quot;1&quot; pageWidth=&quot;827&quot; pageHeight=&quot;1169&quot; math=&quot;0&quot; shadow=&quot;0&quot;&gt;&#10;      &lt;root&gt;&#10;        &lt;mxCell id=&quot;0&quot; /&gt;&#10;        &lt;mxCell id=&quot;1&quot; parent=&quot;0&quot; /&gt;&#10;        &lt;mxCell id=&quot;avGQMYYckVE-guQs1G8Z-3&quot; value=&quot;&quot; style=&quot;sketch=0;points=[[0,0,0],[0.25,0,0],[0.5,0,0],[0.75,0,0],[1,0,0],[0,1,0],[0.25,1,0],[0.5,1,0],[0.75,1,0],[1,1,0],[0,0.25,0],[0,0.5,0],[0,0.75,0],[1,0.25,0],[1,0.5,0],[1,0.75,0]];outlineConnect=0;fontColor=#232F3E;fillColor=#DD344C;strokeColor=#ffffff;dashed=0;verticalLabelPosition=bottom;verticalAlign=top;align=center;html=1;fontSize=12;fontStyle=0;aspect=fixed;shape=mxgraph.aws4.resourceIcon;resIcon=mxgraph.aws4.secrets_manager;&quot; vertex=&quot;1&quot; parent=&quot;1&quot;&gt;&#10;          &lt;mxGeometry x=&quot;654&quot; y=&quot;346&quot; width=&quot;78&quot; height=&quot;78&quot; as=&quot;geometry&quot; /&gt;&#10;        &lt;/mxCell&gt;&#10;      &lt;/root&gt;&#10;    &lt;/mxGraphModel&gt;&#10;  &lt;/diagram&gt;&#10;&lt;/mxfile&gt;&#10;" style="background-color: rgb(255, 255, 255);"><defs/><rect fill="#ffffff" width="100%" height="100%" x="0" y="0"/><g><g data-cell-id="0"><g data-cell-id="1"><g data-cell-id="avGQMYYckVE-guQs1G8Z-3"><g><path d="M 0 0 L 78 0 L 78 78 L 0 78 Z" fill="#dd344c" stroke="none" pointer-events="all"/><path d="M 37.62 42.74 C 37.62 43.51 38.24 44.13 39 44.13 C 39.76 44.13 40.38 43.51 40.38 42.74 C 40.38 41.98 39.76 41.36 39 41.36 C 38.24 41.36 37.62 41.98 37.62 42.74 Z M 35.39 42.74 C 35.39 40.75 37.01 39.13 39 39.13 C 40.99 39.13 42.61 40.75 42.61 42.74 C 42.61 44.34 41.56 45.69 40.11 46.16 L 40.11 49.03 L 37.89 49.03 L 37.89 46.16 C 36.44 45.69 35.39 44.34 35.39 42.74 Z M 49.03 36.77 L 28.97 36.77 L 28.97 51.26 L 49.03 51.26 L 49.03 47.91 L 45.69 47.91 L 45.69 45.69 L 49.03 45.69 L 49.03 42.34 L 45.69 42.34 L 45.69 40.11 L 49.03 40.11 Z M 32.31 34.54 L 45.68 34.54 L 45.69 28.97 C 45.69 26.06 42.5 23.4 39 23.4 L 39 23.4 C 37.3 23.4 35.58 24.04 34.28 25.16 C 33.03 26.23 32.31 27.62 32.31 28.97 Z M 47.91 28.97 L 47.91 34.54 L 50.14 34.54 C 50.76 34.54 51.26 35.04 51.26 35.66 L 51.26 52.37 C 51.26 52.99 50.76 53.49 50.14 53.49 L 27.86 53.49 C 27.24 53.49 26.74 52.99 26.74 52.37 L 26.74 35.66 C 26.74 35.04 27.24 34.54 27.86 34.54 L 30.09 34.54 L 30.09 28.97 C 30.09 26.97 31.09 24.96 32.83 23.46 C 34.52 22.01 36.77 21.17 39 21.17 L 39 21.17 C 43.75 21.17 47.92 24.82 47.91 28.97 Z M 15.83 55.77 L 17.64 54.46 C 14.59 50.25 12.9 45.31 12.7 40.11 L 15.6 40.11 L 15.6 37.89 L 12.7 37.89 C 12.92 32.72 14.61 27.81 17.64 23.62 L 15.83 22.31 C 12.52 26.89 10.7 32.25 10.47 37.89 L 7.8 37.89 L 7.8 40.11 L 10.47 40.11 C 10.68 45.78 12.51 51.17 15.83 55.77 Z M 54.42 60.4 C 50.22 63.44 45.29 65.13 40.11 65.34 L 40.11 62.4 L 37.89 62.4 L 37.89 65.34 C 32.71 65.13 27.78 63.44 23.58 60.4 L 22.27 62.21 C 26.85 65.53 32.23 67.35 37.89 67.57 L 37.89 70.2 L 40.11 70.2 L 40.11 67.57 C 45.77 67.35 51.14 65.53 55.73 62.21 Z M 23.58 17.68 C 27.78 14.64 32.71 12.96 37.89 12.74 L 37.89 15.6 L 40.11 15.6 L 40.11 12.74 C 45.29 12.96 50.22 14.64 54.42 17.68 L 55.73 15.87 C 51.14 12.56 45.77 10.73 40.11 10.51 L 40.11 7.8 L 37.89 7.8 L 37.89 10.51 C 32.23 10.73 26.85 12.56 22.27 15.87 Z M 67.52 37.89 C 67.3 32.25 65.47 26.89 62.17 22.31 L 60.36 23.62 C 63.39 27.81 65.07 32.72 65.3 37.89 L 62.4 37.89 L 62.4 40.11 L 65.3 40.11 C 65.09 45.31 63.41 50.25 60.36 54.46 L 62.17 55.77 C 65.49 51.17 67.32 45.78 67.53 40.11 L 70.2 40.11 L 70.2 37.89 Z M 57.26 22.36 L 65.99 13.62 L 64.42 12.05 L 55.68 20.78 Z M 20.74 55.73 L 12 64.46 L 13.58 66.04 L 22.31 57.3 Z M 26.37 24.8 L 9.83 8.26 L 8.26 9.84 L 24.8 26.37 Z M 54.82 53.24 L 69.74 68.16 L 68.16 69.74 L 53.24 54.82 Z" fill="#ffffff" stroke="none" pointer-events="all"/></g></g></g></g></g></svg>