<?xml version="1.0" encoding="UTF-8"?>
<!-- Do not edit this file with editors other than draw.io -->
<!DOCTYPE svg PUBLIC "-//W3C//DTD SVG 1.1//EN" "http://www.w3.org/Graphics/SVG/1.1/DTD/svg11.dtd">
<svg xmlns="http://www.w3.org/2000/svg" xmlns:xlink="http://www.w3.org/1999/xlink" version="1.1" width="79px" height="79px" viewBox="-0.5 -0.5 79 79" content="&lt;mxfile host=&quot;app.diagrams.net&quot; agent=&quot;Mozilla/5.0 (Windows NT 10.0; Win64; x64) AppleWebKit/537.36 (KHTML, like Gecko) Chrome/128.0.0.0 Safari/537.36&quot; version=&quot;24.7.12&quot; scale=&quot;1&quot; border=&quot;0&quot;&gt;&#10;  &lt;diagram id=&quot;Ht1M8jgEwFfnCIfOTk4-&quot; name=&quot;Page-1&quot;&gt;&#10;    &lt;mxGraphModel dx=&quot;1472&quot; dy=&quot;1040&quot; grid=&quot;0&quot; gridSize=&quot;10&quot; guides=&quot;1&quot; tooltips=&quot;1&quot; connect=&quot;1&quot; arrows=&quot;1&quot; fold=&quot;1&quot; page=&quot;0&quot; pageScale=&quot;1&quot; pageWidth=&quot;827&quot; pageHeight=&quot;1169&quot; math=&quot;0&quot; shadow=&quot;0&quot;&gt;&#10;      &lt;root&gt;&#10;        &lt;mxCell id=&quot;0&quot; /&gt;&#10;        &lt;mxCell id=&quot;1&quot; parent=&quot;0&quot; /&gt;&#10;        &lt;mxCell id=&quot;CLg2kltCwuJcUN33AdQs-4&quot; value=&quot;&quot; style=&quot;sketch=0;points=[[0,0,0],[0.25,0,0],[0.5,0,0],[0.75,0,0],[1,0,0],[0,1,0],[0.25,1,0],[0.5,1,0],[0.75,1,0],[1,1,0],[0,0.25,0],[0,0.5,0],[0,0.75,0],[1,0.25,0],[1,0.5,0],[1,0.75,0]];outlineConnect=0;fontColor=#232F3E;fillColor=#DD344C;strokeColor=#ffffff;dashed=0;verticalLabelPosition=bottom;verticalAlign=top;align=center;html=1;fontSize=12;fontStyle=0;aspect=fixed;shape=mxgraph.aws4.resourceIcon;resIcon=mxgraph.aws4.certificate_manager_3;&quot; vertex=&quot;1&quot; parent=&quot;1&quot;&gt;&#10;          &lt;mxGeometry x=&quot;541&quot; y=&quot;190&quot; width=&quot;78&quot; height=&quot;78&quot; as=&quot;geometry&quot; /&gt;&#10;        &lt;/mxCell&gt;&#10;      &lt;/root&gt;&#10;    &lt;/mxGraphModel&gt;&#10;  &lt;/diagram&gt;&#10;&lt;/mxfile&gt;&#10;" style="background-color: rgb(255, 255, 255);"><defs/><rect fill="#ffffff" width="100%" height="100%" x="0" y="0"/><g><g data-cell-id="0"><g data-cell-id="1"><g data-cell-id="CLg2kltCwuJcUN33AdQs-4"><g><path d="M 0 0 L 78 0 L 78 78 L 0 78 Z" fill="#dd344c" stroke="none" pointer-events="all"/><path d="M 34.2 38.2 C 34.48 38.47 34.6 38.86 34.52 39.24 L 33.38 44.48 L 38.42 41.39 C 38.77 41.17 39.23 41.17 39.58 41.39 L 44.59 44.48 L 43.48 39.22 C 43.4 38.85 43.52 38.46 43.79 38.2 L 48.29 33.79 L 42.42 32.94 C 42.06 32.89 41.74 32.66 41.58 32.33 L 38.99 27.02 L 36.34 32.34 C 36.18 32.67 35.86 32.89 35.5 32.95 L 29.65 33.8 Z M 30.64 46.56 L 32.21 39.37 L 26.47 33.83 C 26.16 33.53 26.05 33.09 26.18 32.69 C 26.31 32.28 26.66 31.99 27.08 31.93 L 34.6 30.83 L 38 24.01 C 38.19 23.63 38.55 23.37 39 23.39 C 39.43 23.39 39.81 23.64 40 24.02 L 43.33 30.82 L 50.84 31.91 C 51.26 31.97 51.61 32.26 51.74 32.66 C 51.87 33.07 51.76 33.51 51.46 33.81 L 45.79 39.36 L 47.31 46.56 C 47.4 47 47.22 47.44 46.86 47.7 C 46.49 47.96 46.01 47.97 45.63 47.74 L 39 43.65 L 32.31 47.75 C 32.13 47.86 31.93 47.91 31.73 47.91 C 31.5 47.91 31.28 47.85 31.09 47.71 C 30.72 47.45 30.55 47 30.64 46.56 Z M 10.03 17.85 L 67.97 17.85 L 67.97 12.26 L 10.03 12.26 Z M 70.2 11.14 L 70.2 66.86 C 70.2 67.47 69.7 67.97 69.09 67.97 L 62.4 67.97 L 62.4 65.74 L 67.97 65.74 L 67.97 20.08 L 10.03 20.08 L 10.03 65.74 L 52.37 65.74 L 52.37 67.97 L 8.91 67.97 C 8.3 67.97 7.8 67.47 7.8 66.86 L 7.8 11.14 C 7.8 10.53 8.3 10.03 8.91 10.03 L 69.09 10.03 C 69.7 10.03 70.2 10.53 70.2 11.14 Z M 21.17 60.17 L 27.86 60.17 L 27.86 57.94 L 21.17 57.94 Z M 32.31 60.17 L 47.91 60.17 L 47.91 57.94 L 32.31 57.94 Z M 21.17 54.6 L 27.86 54.6 L 27.86 52.37 L 21.17 52.37 Z M 32.31 54.6 L 56.83 54.6 L 56.83 52.37 L 32.31 52.37 Z" fill="#ffffff" stroke="none" pointer-events="all"/></g></g></g></g></g></svg>