<?xml version="1.0" encoding="UTF-8"?>
<!-- Do not edit this file with editors other than draw.io -->
<!DOCTYPE svg PUBLIC "-//W3C//DTD SVG 1.1//EN" "http://www.w3.org/Graphics/SVG/1.1/DTD/svg11.dtd">
<svg xmlns="http://www.w3.org/2000/svg" xmlns:xlink="http://www.w3.org/1999/xlink" version="1.1" width="79px" height="79px" viewBox="-0.5 -0.5 79 79" content="&lt;mxfile host=&quot;app.diagrams.net&quot; agent=&quot;Mozilla/5.0 (Windows NT 10.0; Win64; x64) AppleWebKit/537.36 (KHTML, like Gecko) Chrome/128.0.0.0 Safari/537.36&quot; version=&quot;24.7.12&quot; scale=&quot;1&quot; border=&quot;0&quot;&gt;&#10;  &lt;diagram id=&quot;Ht1M8jgEwFfnCIfOTk4-&quot; name=&quot;Page-1&quot;&gt;&#10;    &lt;mxGraphModel dx=&quot;1072&quot; dy=&quot;640&quot; grid=&quot;0&quot; gridSize=&quot;10&quot; guides=&quot;1&quot; tooltips=&quot;1&quot; connect=&quot;1&quot; arrows=&quot;1&quot; fold=&quot;1&quot; page=&quot;0&quot; pageScale=&quot;1&quot; pageWidth=&quot;827&quot; pageHeight=&quot;1169&quot; math=&quot;0&quot; shadow=&quot;0&quot;&gt;&#10;      &lt;root&gt;&#10;        &lt;mxCell id=&quot;0&quot; /&gt;&#10;        &lt;mxCell id=&quot;1&quot; parent=&quot;0&quot; /&gt;&#10;        &lt;mxCell id=&quot;CLg2kltCwuJcUN33AdQs-10&quot; value=&quot;&quot; style=&quot;sketch=0;points=[[0,0,0],[0.25,0,0],[0.5,0,0],[0.75,0,0],[1,0,0],[0,1,0],[0.25,1,0],[0.5,1,0],[0.75,1,0],[1,1,0],[0,0.25,0],[0,0.5,0],[0,0.75,0],[1,0.25,0],[1,0.5,0],[1,0.75,0]];outlineConnect=0;fontColor=#232F3E;fillColor=#ED7100;strokeColor=#ffffff;dashed=0;verticalLabelPosition=bottom;verticalAlign=top;align=center;html=1;fontSize=12;fontStyle=0;aspect=fixed;shape=mxgraph.aws4.resourceIcon;resIcon=mxgraph.aws4.ecr;&quot; vertex=&quot;1&quot; parent=&quot;1&quot;&gt;&#10;          &lt;mxGeometry x=&quot;1001&quot; y=&quot;682&quot; width=&quot;78&quot; height=&quot;78&quot; as=&quot;geometry&quot; /&gt;&#10;        &lt;/mxCell&gt;&#10;      &lt;/root&gt;&#10;    &lt;/mxGraphModel&gt;&#10;  &lt;/diagram&gt;&#10;&lt;/mxfile&gt;&#10;" style="background-color: rgb(255, 255, 255);"><defs/><rect fill="#ffffff" width="100%" height="100%" x="0" y="0"/><g><g data-cell-id="0"><g data-cell-id="1"><g data-cell-id="CLg2kltCwuJcUN33AdQs-10"><g><path d="M 0 0 L 78 0 L 78 78 L 0 78 Z" fill="#ed7100" stroke="none" pointer-events="all"/><path d="M 37.13 35.84 C 36.59 36.16 36.25 36.74 36.25 37.37 L 36.25 67.71 L 13.31 54.88 L 13.31 25.05 L 39.06 10.13 L 61.94 21.47 Z M 64.61 21.44 C 64.61 20.81 64.27 20.22 63.67 19.88 L 39.92 8.11 C 39.38 7.8 38.71 7.8 38.17 8.11 L 12 23.28 C 11.46 23.59 11.12 24.18 11.12 24.8 L 11.12 55.13 C 11.12 55.76 11.46 56.34 12.01 56.66 L 35.8 69.97 C 36.07 70.12 36.38 70.2 36.68 70.2 C 36.98 70.2 37.29 70.12 37.56 69.97 C 38.1 69.65 38.44 69.07 38.44 68.44 L 38.44 37.62 L 63.73 22.96 C 64.27 22.65 64.61 22.07 64.61 21.44 Z M 64.66 54.95 L 43.9 67.64 L 43.9 56.27 L 54.72 49.29 L 54.8 48.8 C 54.82 48.67 54.83 48.67 54.83 48.08 L 54.86 34.51 L 64.69 28.82 Z M 66 26.54 C 65.46 26.23 64.79 26.23 64.24 26.54 L 53.78 32.61 C 53.45 32.79 52.68 33.21 52.68 34.07 L 52.64 48.02 L 42.66 54.46 C 42.07 54.82 41.71 55.38 41.71 55.97 L 41.71 68.35 C 41.71 68.97 42.05 69.53 42.61 69.86 C 42.9 70.03 43.22 70.11 43.55 70.11 C 43.86 70.11 44.18 70.03 44.47 69.86 L 65.97 56.71 C 66.51 56.4 66.85 55.81 66.85 55.19 L 66.88 28.07 C 66.88 27.44 66.54 26.86 66 26.54 Z" fill="#ffffff" stroke="none" pointer-events="all"/></g></g></g></g></g></svg>