<?xml version="1.0" encoding="UTF-8"?>
<!-- Do not edit this file with editors other than draw.io -->
<!DOCTYPE svg PUBLIC "-//W3C//DTD SVG 1.1//EN" "http://www.w3.org/Graphics/SVG/1.1/DTD/svg11.dtd">
<svg xmlns="http://www.w3.org/2000/svg" xmlns:xlink="http://www.w3.org/1999/xlink" version="1.1" width="78px" height="78px" viewBox="-0.5 -0.5 78 78" content="&lt;mxfile host=&quot;app.diagrams.net&quot; agent=&quot;Mozilla/5.0 (Windows NT 10.0; Win64; x64) AppleWebKit/537.36 (KHTML, like Gecko) Chrome/128.0.0.0 Safari/537.36&quot; version=&quot;24.7.12&quot; scale=&quot;1&quot; border=&quot;0&quot;&gt;&#10;  &lt;diagram id=&quot;Ht1M8jgEwFfnCIfOTk4-&quot; name=&quot;Page-1&quot;&gt;&#10;    &lt;mxGraphModel dx=&quot;2272&quot; dy=&quot;1440&quot; grid=&quot;0&quot; gridSize=&quot;10&quot; guides=&quot;1&quot; tooltips=&quot;1&quot; connect=&quot;1&quot; arrows=&quot;1&quot; fold=&quot;1&quot; page=&quot;0&quot; pageScale=&quot;1&quot; pageWidth=&quot;827&quot; pageHeight=&quot;1169&quot; math=&quot;0&quot; shadow=&quot;0&quot;&gt;&#10;      &lt;root&gt;&#10;        &lt;mxCell id=&quot;0&quot; /&gt;&#10;        &lt;mxCell id=&quot;1&quot; parent=&quot;0&quot; /&gt;&#10;        &lt;mxCell id=&quot;CLg2kltCwuJcUN33AdQs-15&quot; value=&quot;&quot; style=&quot;sketch=0;outlineConnect=0;fontColor=#232F3E;gradientColor=none;fillColor=#8C4FFF;strokeColor=none;dashed=0;verticalLabelPosition=bottom;verticalAlign=top;align=center;html=1;fontSize=12;fontStyle=0;aspect=fixed;pointerEvents=1;shape=mxgraph.aws4.application_load_balancer;&quot; vertex=&quot;1&quot; parent=&quot;1&quot;&gt;&#10;          &lt;mxGeometry x=&quot;-150&quot; y=&quot;-134&quot; width=&quot;78&quot; height=&quot;78&quot; as=&quot;geometry&quot; /&gt;&#10;        &lt;/mxCell&gt;&#10;      &lt;/root&gt;&#10;    &lt;/mxGraphModel&gt;&#10;  &lt;/diagram&gt;&#10;&lt;/mxfile&gt;&#10;" style="background-color: rgb(255, 255, 255);"><defs/><rect fill="#ffffff" width="100%" height="100%" x="0" y="0"/><g><g data-cell-id="0"><g data-cell-id="1"><g data-cell-id="CLg2kltCwuJcUN33AdQs-15"><g><rect x="0" y="0" width="78" height="78" fill="none" stroke="none" pointer-events="all"/><path d="M 39 0 C 17.49 0 0 17.5 0 39 C 0 60.5 17.49 78 39 78 C 60.5 78 78 60.5 78 39 C 78 17.5 60.5 0 39 0 Z M 39 74.45 C 19.45 74.45 3.55 58.55 3.55 39 C 3.55 19.45 19.45 3.55 39 3.55 C 58.55 3.55 74.45 19.45 74.45 39 C 74.45 58.55 58.55 74.45 39 74.45 Z M 62.11 49.64 L 59.39 49.64 L 59.39 43.65 C 59.39 42.67 58.59 41.88 57.61 41.88 L 53.18 41.88 L 53.18 35.9 C 53.18 34.92 52.39 34.13 51.41 34.13 L 40.77 34.13 L 40.77 29.91 L 51.41 29.91 C 52.39 29.91 53.18 29.12 53.18 28.14 L 53.18 14.18 C 53.18 13.2 52.39 12.41 51.41 12.41 L 26.59 12.41 C 25.61 12.41 24.82 13.2 24.82 14.18 L 24.82 28.14 C 24.82 29.12 25.61 29.91 26.59 29.91 L 37.23 29.91 L 37.23 34.13 L 26.59 34.13 C 25.61 34.13 24.82 34.92 24.82 35.9 L 24.82 41.88 L 20.39 41.88 C 19.41 41.88 18.61 42.67 18.61 43.65 L 18.61 49.64 L 15.89 49.64 C 14.91 49.64 14.12 50.43 14.12 51.41 L 14.12 59.16 C 14.12 60.14 14.91 60.94 15.89 60.94 L 23.49 60.94 C 24.47 60.94 25.26 60.14 25.26 59.16 L 25.26 51.41 C 25.26 50.43 24.47 49.64 23.49 49.64 L 22.16 49.64 L 22.16 45.43 L 29.47 45.43 L 29.47 49.64 L 28.14 49.64 C 27.16 49.64 26.37 50.43 26.37 51.41 L 26.37 59.16 C 26.37 60.14 27.16 60.94 28.14 60.94 L 35.9 60.94 C 36.88 60.94 37.67 60.14 37.67 59.16 L 37.67 51.41 C 37.67 50.43 36.88 49.64 35.9 49.64 L 33.02 49.64 L 33.02 43.65 C 33.02 42.67 32.22 41.88 31.25 41.88 L 28.36 41.88 L 28.36 37.67 L 49.64 37.67 L 49.64 41.88 L 46.76 41.88 C 45.78 41.88 44.98 42.67 44.98 43.65 L 44.98 49.64 L 42.1 49.64 C 41.12 49.64 40.33 50.43 40.33 51.41 L 40.33 59.16 C 40.33 60.14 41.12 60.94 42.1 60.94 L 49.86 60.94 C 50.84 60.94 51.63 60.14 51.63 59.16 L 51.63 51.41 C 51.63 50.43 50.84 49.64 49.86 49.64 L 48.53 49.64 L 48.53 45.43 L 55.84 45.43 L 55.84 49.64 L 54.4 49.64 C 53.42 49.64 52.63 50.43 52.63 51.41 L 52.63 59.16 C 52.63 60.14 53.42 60.94 54.4 60.94 L 62.11 60.94 C 63.08 60.94 63.88 60.14 63.88 59.16 L 63.88 51.41 C 63.88 50.43 63.08 49.64 62.11 49.64 Z M 28.36 26.37 L 28.36 15.96 L 49.64 15.96 L 49.64 26.37 Z M 17.67 57.39 L 17.67 53.18 L 21.72 53.18 L 21.72 57.39 Z M 29.92 57.39 L 29.92 53.18 L 34.13 53.18 L 34.13 57.39 Z M 43.88 57.39 L 43.88 53.18 L 48.09 53.18 L 48.09 57.39 Z M 56.18 57.39 L 56.18 53.18 L 60.33 53.18 L 60.33 57.39 Z" fill="#8c4fff" stroke="none" pointer-events="all"/></g></g></g></g></g></svg>