<?xml version="1.0" encoding="UTF-8"?>
<!-- Do not edit this file with editors other than draw.io -->
<!DOCTYPE svg PUBLIC "-//W3C//DTD SVG 1.1//EN" "http://www.w3.org/Graphics/SVG/1.1/DTD/svg11.dtd">
<svg xmlns="http://www.w3.org/2000/svg" xmlns:xlink="http://www.w3.org/1999/xlink" version="1.1" width="79px" height="79px" viewBox="-0.5 -0.5 79 79" content="&lt;mxfile host=&quot;app.diagrams.net&quot; agent=&quot;Mozilla/5.0 (Windows NT 10.0; Win64; x64) AppleWebKit/537.36 (KHTML, like Gecko) Chrome/128.0.0.0 Safari/537.36&quot; version=&quot;24.7.12&quot; scale=&quot;1&quot; border=&quot;0&quot;&gt;&#10;  &lt;diagram id=&quot;Ht1M8jgEwFfnCIfOTk4-&quot; name=&quot;Page-1&quot;&gt;&#10;    &lt;mxGraphModel dx=&quot;640&quot; dy=&quot;400&quot; grid=&quot;0&quot; gridSize=&quot;10&quot; guides=&quot;1&quot; tooltips=&quot;1&quot; connect=&quot;1&quot; arrows=&quot;1&quot; fold=&quot;1&quot; page=&quot;0&quot; pageScale=&quot;1&quot; pageWidth=&quot;827&quot; pageHeight=&quot;1169&quot; math=&quot;0&quot; shadow=&quot;0&quot;&gt;&#10;      &lt;root&gt;&#10;        &lt;mxCell id=&quot;0&quot; /&gt;&#10;        &lt;mxCell id=&quot;1&quot; parent=&quot;0&quot; /&gt;&#10;        &lt;mxCell id=&quot;CLg2kltCwuJcUN33AdQs-17&quot; value=&quot;&quot; style=&quot;sketch=0;points=[[0,0,0],[0.25,0,0],[0.5,0,0],[0.75,0,0],[1,0,0],[0,1,0],[0.25,1,0],[0.5,1,0],[0.75,1,0],[1,1,0],[0,0.25,0],[0,0.5,0],[0,0.75,0],[1,0.25,0],[1,0.5,0],[1,0.75,0]];outlineConnect=0;fontColor=#232F3E;fillColor=#E7157B;strokeColor=#ffffff;dashed=0;verticalLabelPosition=bottom;verticalAlign=top;align=center;html=1;fontSize=12;fontStyle=0;aspect=fixed;shape=mxgraph.aws4.resourceIcon;resIcon=mxgraph.aws4.api_gateway;&quot; vertex=&quot;1&quot; parent=&quot;1&quot;&gt;&#10;          &lt;mxGeometry x=&quot;1142&quot; y=&quot;436&quot; width=&quot;78&quot; height=&quot;78&quot; as=&quot;geometry&quot; /&gt;&#10;        &lt;/mxCell&gt;&#10;      &lt;/root&gt;&#10;    &lt;/mxGraphModel&gt;&#10;  &lt;/diagram&gt;&#10;&lt;/mxfile&gt;&#10;" style="background-color: rgb(255, 255, 255);"><defs/><rect fill="#ffffff" width="100%" height="100%" x="0" y="0"/><g><g data-cell-id="0"><g data-cell-id="1"><g data-cell-id="CLg2kltCwuJcUN33AdQs-17"><g><path d="M 0 0 L 78 0 L 78 78 L 0 78 Z" fill="#e7157b" stroke="none" pointer-events="all"/><path d="M 32.39 56.43 L 35.66 56.43 L 35.66 54.19 L 32.39 54.19 Z M 37.89 56.43 L 41.23 56.43 L 41.23 54.19 L 37.89 54.19 Z M 24.53 10.78 L 10.05 17.97 L 10.05 62.62 L 24.53 67.52 Z M 26.75 24.99 L 26.75 54.19 L 30.09 54.19 L 30.09 56.43 L 26.75 56.43 L 26.75 69.08 C 26.75 69.44 26.58 69.78 26.29 69.99 C 26.1 70.13 25.87 70.2 25.64 70.2 C 25.52 70.2 25.4 70.18 25.29 70.14 L 8.59 64.5 C 8.13 64.34 7.83 63.91 7.83 63.43 L 7.83 17.27 C 7.83 16.84 8.07 16.45 8.45 16.26 L 25.15 7.97 C 25.49 7.8 25.9 7.82 26.23 8.03 C 26.55 8.23 26.75 8.59 26.75 8.98 L 26.75 22.75 L 30.09 22.75 L 30.09 24.99 Z M 43.45 56.43 L 46.79 56.43 L 46.79 54.19 L 43.45 54.19 Z M 43.53 24.99 L 46.79 24.99 L 46.79 22.75 L 43.53 22.75 Z M 37.96 24.99 L 41.23 24.99 L 41.23 22.75 L 37.96 22.75 Z M 32.39 24.99 L 35.66 24.99 L 35.66 22.75 L 32.39 22.75 Z M 67.95 17.97 L 53.47 10.78 L 53.47 67.52 L 67.95 62.62 Z M 70.17 63.43 C 70.17 63.91 69.87 64.34 69.41 64.5 L 52.71 70.14 C 52.6 70.18 52.48 70.2 52.36 70.2 C 52.13 70.2 51.9 70.13 51.71 69.99 C 51.42 69.78 51.25 69.44 51.25 69.08 L 51.25 56.43 L 49.09 56.43 L 49.09 54.19 L 51.25 54.19 L 51.25 24.99 L 49.09 24.99 L 49.09 22.75 L 51.25 22.75 L 51.25 8.98 C 51.25 8.59 51.45 8.23 51.77 8.03 C 52.1 7.82 52.51 7.8 52.85 7.97 L 69.55 16.26 C 69.93 16.45 70.17 16.84 70.17 17.27 Z M 42.27 32.13 L 40.19 31.33 L 34.62 45.92 L 36.7 46.73 Z M 49.81 39.26 C 50.24 38.82 50.24 38.11 49.81 37.67 L 45.35 33.18 L 43.78 34.77 L 47.45 38.47 L 43.78 42.16 L 45.35 43.75 Z M 32.65 43.75 L 28.19 39.26 C 27.76 38.82 27.76 38.11 28.19 37.67 L 32.65 33.18 L 34.22 34.77 L 30.55 38.47 L 34.22 42.16 Z" fill="#ffffff" stroke="none" pointer-events="all"/></g></g></g></g></g></svg>