<?xml version="1.0" encoding="UTF-8"?>
<!-- Do not edit this file with editors other than draw.io -->
<!DOCTYPE svg PUBLIC "-//W3C//DTD SVG 1.1//EN" "http://www.w3.org/Graphics/SVG/1.1/DTD/svg11.dtd">
<svg xmlns="http://www.w3.org/2000/svg" xmlns:xlink="http://www.w3.org/1999/xlink" version="1.1" width="78px" height="78px" viewBox="-0.5 -0.5 78 78" content="&lt;mxfile host=&quot;app.diagrams.net&quot; agent=&quot;Mozilla/5.0 (Windows NT 10.0; Win64; x64) AppleWebKit/537.36 (KHTML, like Gecko) Chrome/128.0.0.0 Safari/537.36&quot; version=&quot;24.7.12&quot; scale=&quot;1&quot; border=&quot;0&quot;&gt;&#10;  &lt;diagram id=&quot;Ht1M8jgEwFfnCIfOTk4-&quot; name=&quot;Page-1&quot;&gt;&#10;    &lt;mxGraphModel dx=&quot;1040&quot; dy=&quot;800&quot; grid=&quot;0&quot; gridSize=&quot;10&quot; guides=&quot;1&quot; tooltips=&quot;1&quot; connect=&quot;1&quot; arrows=&quot;1&quot; fold=&quot;1&quot; page=&quot;0&quot; pageScale=&quot;1&quot; pageWidth=&quot;827&quot; pageHeight=&quot;1169&quot; math=&quot;0&quot; shadow=&quot;0&quot;&gt;&#10;      &lt;root&gt;&#10;        &lt;mxCell id=&quot;0&quot; /&gt;&#10;        &lt;mxCell id=&quot;1&quot; parent=&quot;0&quot; /&gt;&#10;        &lt;mxCell id=&quot;CLg2kltCwuJcUN33AdQs-18&quot; value=&quot;&quot; style=&quot;sketch=0;outlineConnect=0;fontColor=#232F3E;gradientColor=none;fillColor=#8C4FFF;strokeColor=none;dashed=0;verticalLabelPosition=bottom;verticalAlign=top;align=center;html=1;fontSize=12;fontStyle=0;aspect=fixed;pointerEvents=1;shape=mxgraph.aws4.network_load_balancer;&quot; vertex=&quot;1&quot; parent=&quot;1&quot;&gt;&#10;          &lt;mxGeometry x=&quot;494&quot; y=&quot;150&quot; width=&quot;78&quot; height=&quot;78&quot; as=&quot;geometry&quot; /&gt;&#10;        &lt;/mxCell&gt;&#10;      &lt;/root&gt;&#10;    &lt;/mxGraphModel&gt;&#10;  &lt;/diagram&gt;&#10;&lt;/mxfile&gt;&#10;" style="background-color: rgb(255, 255, 255);"><defs/><rect fill="#ffffff" width="100%" height="100%" x="0" y="0"/><g><g data-cell-id="0"><g data-cell-id="1"><g data-cell-id="CLg2kltCwuJcUN33AdQs-18"><g><rect x="0" y="0" width="78" height="78" fill="none" stroke="none" pointer-events="all"/><path d="M 60.72 32.57 L 51.41 32.57 C 50.43 32.57 49.64 33.37 49.64 34.35 L 49.64 43.65 C 49.64 44.63 50.43 45.42 51.41 45.42 L 60.72 45.42 C 61.7 45.42 62.49 44.63 62.49 43.65 L 62.49 34.35 C 62.49 33.37 61.7 32.57 60.72 32.57 Z M 53.18 41.88 L 53.18 36.12 L 58.94 36.12 L 58.94 41.88 Z M 47.22 55.22 C 47.48 56.16 46.92 57.13 45.98 57.39 L 38.85 59.32 L 37.92 55.9 L 40.7 55.15 L 27.77 48.32 L 29.43 45.19 L 42.74 52.21 L 41.87 49.02 L 45.29 48.09 Z M 24.88 29.52 L 9.48 29.52 C 8.5 29.52 7.7 30.32 7.7 31.3 L 7.7 46.7 C 7.7 47.68 8.5 48.48 9.48 48.48 L 24.88 48.48 C 25.86 48.48 26.65 47.68 26.65 46.7 L 26.65 31.3 C 26.65 30.32 25.86 29.52 24.88 29.52 Z M 11.25 44.93 L 11.25 33.07 L 23.11 33.07 L 23.11 44.93 Z M 60.72 15.51 L 51.41 15.51 C 50.43 15.51 49.64 16.3 49.64 17.28 L 49.64 26.59 C 49.64 27.57 50.43 28.36 51.41 28.36 L 60.72 28.36 C 61.7 28.36 62.49 27.57 62.49 26.59 L 62.49 17.28 C 62.49 16.3 61.7 15.51 60.72 15.51 Z M 53.18 24.82 L 53.18 19.06 L 58.94 19.06 L 58.94 24.82 Z M 27.77 29.68 L 40.7 22.85 L 37.92 22.1 L 38.85 18.68 L 45.98 20.61 C 46.92 20.86 47.48 21.83 47.22 22.78 L 45.29 29.91 L 41.87 28.98 L 42.74 25.79 L 29.43 32.81 Z M 60.72 49.64 L 51.41 49.64 C 50.43 49.64 49.64 50.43 49.64 51.41 L 49.64 60.72 C 49.64 61.7 50.43 62.49 51.41 62.49 L 60.72 62.49 C 61.7 62.49 62.49 61.7 62.49 60.72 L 62.49 51.41 C 62.49 50.43 61.7 49.64 60.72 49.64 Z M 53.18 58.94 L 53.18 53.18 L 58.94 53.18 L 58.94 58.94 Z M 48.01 37.75 C 48.7 38.44 48.7 39.56 48.01 40.25 L 42.79 45.47 L 40.29 42.97 L 42.48 40.77 L 29.69 40.77 L 29.69 37.23 L 42.48 37.23 L 40.29 35.03 L 42.79 32.52 Z M 39 0 C 17.5 0 0 17.49 0 39 C 0 60.5 17.5 78 39 78 C 60.51 78 78 60.5 78 39 C 78 17.49 60.51 0 39 0 Z M 39 74.45 C 19.45 74.45 3.55 58.55 3.55 39 C 3.55 19.45 19.45 3.55 39 3.55 C 58.55 3.55 74.45 19.45 74.45 39 C 74.45 58.55 58.55 74.45 39 74.45 Z" fill="#8c4fff" stroke="none" pointer-events="all"/></g></g></g></g></g></svg>